<svg xmlns="http://www.w3.org/2000/svg" width="137" height="26">
    <path fill="#FFF" fill-rule="evenodd" d="M136 0a1 1 0 0 1 1 1v24a1 1 0 0 1-2 0V1a1 1 0 0 1 1-1zM17.188 23.263l2.062 2.053V26H2.75v-.684l2.062-2.053C2.2 23.263 0 21.074 0 18.474v-13C0 .684 4.95 0 11 0s11 .684 11 5.474v13c0 2.6-2.2 4.789-4.812 4.789zM5 20a2 2 0 1 0 .001-3.999A2 2 0 0 0 5 20zm5-15H3v7h7V5zm9 0h-7v7h7V5zm-2 11a2 2 0 1 0-.001 3.999A2 2 0 0 0 17 16zM124.32 15.436a2.887 2.887 0 0 1-1.057 1.225c-.452.29-.982.434-1.589.434-.532 0-.996-.116-1.393-.35a2.252 2.252 0 0 1-.903-.994v3.29a.54.54 0 0 1-.147.399c-.098.098-.235.147-.413.147a.567.567 0 0 1-.42-.154.532.532 0 0 1-.154-.392v-8.442c0-.168.052-.303.154-.406a.571.571 0 0 1 .42-.154c.178 0 .315.052.413.154a.564.564 0 0 1 .147.406v.756c.206-.429.507-.76.903-.994.397-.233.861-.35 1.393-.35.598 0 1.125.15 1.582.448.458.299.812.717 1.064 1.253.252.537.378 1.16.378 1.869 0 .71-.126 1.328-.378 1.855zm-1.33-3.78c-.364-.462-.877-.693-1.54-.693-.662 0-1.173.224-1.533.672-.359.448-.539 1.088-.539 1.918 0 .831.18 1.473.539 1.925.36.453.871.679 1.533.679.663 0 1.176-.224 1.54-.672.364-.448.546-1.082.546-1.904 0-.821-.182-1.463-.546-1.925zm-7.874 5.005c-.453.29-.983.434-1.589.434-.532 0-.997-.116-1.393-.35a2.24 2.24 0 0 1-.903-.994v3.29a.54.54 0 0 1-.147.399c-.098.098-.236.147-.413.147a.564.564 0 0 1-.42-.154.528.528 0 0 1-.154-.392v-8.442c0-.168.051-.303.154-.406a.568.568 0 0 1 .42-.154c.177 0 .315.052.413.154a.564.564 0 0 1 .147.406v.756c.205-.429.506-.76.903-.994.396-.233.861-.35 1.393-.35.597 0 1.124.15 1.582.448.457.299.812.717 1.064 1.253.252.537.378 1.16.378 1.869 0 .71-.126 1.328-.378 1.855a2.893 2.893 0 0 1-1.057 1.225zm-.273-5.005c-.364-.462-.878-.693-1.54-.693-.663 0-1.174.224-1.533.672-.36.448-.539 1.088-.539 1.918 0 .831.179 1.473.539 1.925.359.453.87.679 1.533.679.662 0 1.176-.224 1.54-.672.364-.448.546-1.082.546-1.904 0-.821-.182-1.463-.546-1.925zm-6.748 5.411c-.234 0-.397-.112-.49-.336l-.994-2.268h-5.278l-1.008 2.268c-.094.224-.257.336-.49.336a.576.576 0 0 1-.392-.147.457.457 0 0 1-.168-.357c0-.074.018-.149.056-.224l4.004-8.904a.61.61 0 0 1 .252-.294.712.712 0 0 1 .364-.098c.14 0 .266.035.378.105.112.07.196.166.252.287l4.004 8.904a.53.53 0 0 1 .056.238c0 .14-.054.257-.161.35a.566.566 0 0 1-.385.14zm-4.13-8.582l-2.212 5.026h4.438l-2.226-5.026zM91.071 19.251a.534.534 0 0 1-.476.322.563.563 0 0 1-.371-.133.425.425 0 0 1-.161-.343c0-.074.019-.149.056-.224l.98-2.114-2.772-5.992a.418.418 0 0 1-.056-.21c0-.14.063-.261.189-.364a.644.644 0 0 1 .413-.154.54.54 0 0 1 .476.322l2.338 5.25 2.338-5.222c.103-.224.266-.336.49-.336.14 0 .266.047.378.14.112.094.168.21.168.35a.446.446 0 0 1-.056.224l-3.934 8.484zm-4.592-2.184a.584.584 0 0 1-.42-.147c-.103-.098-.154-.235-.154-.413v-3.724c0-.634-.124-1.096-.371-1.386-.247-.289-.642-.434-1.183-.434-.625 0-1.125.192-1.498.574-.373.383-.56.901-.56 1.554v3.416c0 .178-.049.315-.147.413-.098.098-.236.147-.413.147a.584.584 0 0 1-.42-.147c-.103-.098-.154-.235-.154-.413v-5.908c0-.168.051-.303.154-.406a.571.571 0 0 1 .42-.154c.168 0 .301.052.399.154a.546.546 0 0 1 .147.392v.714c.224-.42.537-.739.938-.959a2.818 2.818 0 0 1 1.372-.329c1.633 0 2.45.901 2.45 2.702v3.794c0 .178-.049.315-.147.413-.098.098-.236.147-.413.147zm-8.554-.406c-.495.29-1.064.434-1.708.434-.644 0-1.211-.144-1.701-.434a2.888 2.888 0 0 1-1.134-1.239c-.266-.536-.399-1.159-.399-1.869 0-.709.133-1.332.399-1.869a2.9 2.9 0 0 1 1.134-1.239c.49-.289 1.057-.434 1.701-.434.644 0 1.213.145 1.708.434.495.29.875.703 1.141 1.239.266.537.399 1.16.399 1.869 0 .71-.133 1.333-.399 1.869-.266.537-.646.95-1.141 1.239zm-.168-5.033c-.364-.452-.877-.679-1.54-.679s-1.176.227-1.54.679c-.364.453-.546 1.095-.546 1.925 0 .84.18 1.484.539 1.932.359.448.875.672 1.547.672.672 0 1.188-.221 1.547-.665.359-.443.539-1.089.539-1.939 0-.83-.182-1.472-.546-1.925zm-7 5.439a.59.59 0 0 1-.413-.147.531.531 0 0 1-.161-.413v-3.766c0-.625-.112-1.078-.336-1.358-.224-.28-.574-.42-1.05-.42-.569 0-1.017.192-1.344.574-.326.383-.49.901-.49 1.554v3.416c0 .178-.053.315-.161.413a.588.588 0 0 1-.413.147.564.564 0 0 1-.406-.147c-.102-.098-.154-.235-.154-.413v-3.766c0-.625-.112-1.078-.336-1.358-.224-.28-.578-.42-1.064-.42-.56 0-1.005.192-1.337.574-.331.383-.497.901-.497 1.554v3.416c0 .178-.051.315-.154.413a.562.562 0 0 1-.406.147.59.59 0 0 1-.413-.147.531.531 0 0 1-.161-.413v-5.908c0-.168.054-.303.161-.406a.577.577 0 0 1 .413-.154c.159 0 .29.049.392.147a.524.524 0 0 1 .154.399v.672c.206-.401.49-.709.854-.924a2.44 2.44 0 0 1 1.26-.322c1.064 0 1.76.448 2.086 1.344.196-.41.495-.737.896-.98a2.608 2.608 0 0 1 1.372-.364c1.512 0 2.268.901 2.268 2.702v3.794c0 .178-.051.315-.154.413a.562.562 0 0 1-.406.147zm-11.438-3.304h-4.508c.084 1.606.845 2.408 2.282 2.408.364 0 .677-.049.938-.147.262-.098.542-.231.84-.399.243-.14.406-.21.49-.21.103 0 .192.042.266.126a.466.466 0 0 1 .112.322c0 .234-.163.448-.49.644-.336.196-.69.343-1.064.441a4.288 4.288 0 0 1-1.092.147c-1.054 0-1.887-.312-2.499-.938-.611-.625-.917-1.488-.917-2.59 0-.7.136-1.318.406-1.855a3.038 3.038 0 0 1 1.141-1.253 3.157 3.157 0 0 1 1.673-.448c.887 0 1.592.29 2.114.868.523.579.784 1.363.784 2.352 0 .187-.037.322-.112.406-.074.084-.196.126-.364.126zm-1.036-2.317c-.326-.368-.784-.553-1.372-.553-.597 0-1.075.187-1.435.56-.359.374-.571.901-.637 1.582h3.962c-.018-.69-.191-1.22-.518-1.589zm-5.6-.413l-.42.042c-.625.056-1.089.278-1.393.665a2.154 2.154 0 0 0-.455 1.365v3.402c0 .187-.051.327-.154.42a.576.576 0 0 1-.406.14.59.59 0 0 1-.413-.147.531.531 0 0 1-.161-.413v-5.908a.52.52 0 0 1 .168-.413.597.597 0 0 1 .406-.147c.15 0 .276.049.378.147a.524.524 0 0 1 .154.399v.784c.196-.41.474-.723.833-.938.36-.214.773-.34 1.239-.378l.196-.014c.392-.028.588.131.588.476 0 .15-.042.269-.126.357-.084.089-.228.143-.434.161zm-5.543 2.73h-4.508c.084 1.606.844 2.408 2.282 2.408.364 0 .676-.049.938-.147.261-.098.541-.231.84-.399.242-.14.406-.21.49-.21.102 0 .191.042.266.126a.471.471 0 0 1 .112.322c0 .234-.164.448-.49.644a4.243 4.243 0 0 1-1.064.441 4.3 4.3 0 0 1-1.092.147c-1.055 0-1.888-.312-2.499-.938-.612-.625-.917-1.488-.917-2.59 0-.7.135-1.318.406-1.855a3.03 3.03 0 0 1 1.141-1.253 3.154 3.154 0 0 1 1.673-.448c.886 0 1.591.29 2.114.868.522.579.784 1.363.784 2.352 0 .187-.038.322-.112.406-.075.084-.196.126-.364.126zm-1.036-2.317c-.327-.368-.784-.553-1.372-.553-.598 0-1.076.187-1.435.56-.36.374-.572.901-.637 1.582h3.962c-.019-.69-.192-1.22-.518-1.589zm-9.156 4.683c.494 0 .938-.074 1.33-.224.392-.149.826-.41 1.302-.784.158-.102.294-.154.406-.154.102 0 .191.047.266.14.074.094.112.21.112.35 0 .187-.075.35-.224.49a4.285 4.285 0 0 1-1.449.861 5.167 5.167 0 0 1-1.771.301c-.934 0-1.741-.203-2.422-.609-.682-.406-1.207-.989-1.575-1.75-.369-.76-.553-1.659-.553-2.695 0-1.026.184-1.92.553-2.681.368-.76.893-1.344 1.575-1.75.681-.406 1.488-.609 2.422-.609.625 0 1.215.101 1.771.301a4.317 4.317 0 0 1 1.449.861c.149.14.224.304.224.49a.553.553 0 0 1-.112.343c-.075.098-.164.147-.266.147-.112 0-.248-.051-.406-.154-.476-.373-.908-.634-1.295-.784a3.71 3.71 0 0 0-1.337-.224c-1.083 0-1.916.353-2.499 1.057-.584.705-.875 1.706-.875 3.003 0 1.307.291 2.313.875 3.017.583.705 1.416 1.057 2.499 1.057z"/>
</svg>
