<svg xmlns="http://www.w3.org/2000/svg" width="18" height="16">
    <path fill="#FFF" fill-rule="evenodd" d="M13 10a4.974 4.974 0 0 1-2.797-.855l-3.33 3.33c-.044.084-.088.169-.159.239-.07.071-.155.115-.239.159l-2.602 2.602c-.044.084-.088.169-.159.239a.956.956 0 0 1-.733.275.949.949 0 0 1-.694-.275c-.048-.049-.073-.109-.109-.165L.286 13.657a.969.969 0 1 1 1.371-1.371l1.356 1.356 1.629-1.629-1.356-1.356a.969.969 0 1 1 1.371-1.371l1.356 1.356 2.843-2.844A5 5 0 1 1 13 10zm0-8a3 3 0 1 0 0 6 3 3 0 0 0 0-6z"/>
</svg>
